<?xml version="1.0" encoding="UTF-8"?>
<svg width="757.9" height="657.9" version="1.1" viewBox="0 0 757.9 657.9" xmlns="http://www.w3.org/2000/svg" xmlns:xlink="http://www.w3.org/1999/xlink">
 <title>Keyboard Keys</title>
 <defs>
  <linearGradient id="linearGradient3165">
   <stop stop-color="#d7d7d7" offset="0"/>
   <stop stop-color="#e7e7e7" offset=".5"/>
   <stop stop-color="#d7d7d7" offset="1"/>
  </linearGradient>
  <linearGradient id="linearGradient3141">
   <stop stop-color="#d8d8d8" offset="0"/>
   <stop stop-color="#a3a3a3" offset="1"/>
  </linearGradient>
  <linearGradient id="linearGradient2905" x1="168.6" x2="168.6" y1="200.4" y2="384.3" gradientUnits="userSpaceOnUse" xlink:href="#linearGradient3141"/>
  <linearGradient id="linearGradient2907" x1="90.59" x2="250.2" y1="292.4" y2="292.4" gradientTransform="matrix(.8317 0 0 .8368 27.65 44.99)" gradientUnits="userSpaceOnUse" xlink:href="#linearGradient3165"/>
  <linearGradient id="linearGradient12" x1="168.6" x2="168.6" y1="200.4" y2="384.3" gradientUnits="userSpaceOnUse">
   <stop stop-color="#d8d8d8" offset="0"/>
   <stop stop-color="#a3a3a3" offset="1"/>
  </linearGradient>
  <linearGradient id="linearGradient13" x1="90.59" x2="250.2" y1="292.4" y2="292.4" gradientTransform="matrix(.8317 0 0 .8368 27.65 44.99)" gradientUnits="userSpaceOnUse">
   <stop stop-color="#d7d7d7" offset="0"/>
   <stop stop-color="#e7e7e7" offset=".5"/>
   <stop stop-color="#d7d7d7" offset="1"/>
  </linearGradient>
  <radialGradient id="radialGradient1" cx="453.6" cy="890.2" r="378.9" gradientTransform="matrix(1 0 0 .8681 0 117.5)" gradientUnits="userSpaceOnUse">
   <stop stop-color="#1c016c" offset="0"/>
   <stop stop-color="#4223b8" offset="1"/>
  </radialGradient>
 </defs>
 <g transform="translate(-74.6 -561.2)">
  <path d="m81.62 568.2h743.9v643.9h-743.9z" fill="url(#radialGradient1)" stroke="#b3b3b3" stroke-linejoin="round" stroke-width="14.03"/>
  <g fill="#000000" font-family="Verdana">
   <text transform="translate(39.77 519.7)" style="shape-inside:url(#rect1);white-space:pre" xml:space="preserve"/>
   <text transform="translate(39.77 519.7)" style="shape-inside:url(#rect2);white-space:pre" xml:space="preserve"/>
   <text transform="translate(39.77 519.7)" style="shape-inside:url(#rect3);white-space:pre" xml:space="preserve"/>
   <text transform="translate(39.77 519.7)" font-size="106.7px" style="shape-inside:url(#rect4);white-space:pre" xml:space="preserve"/>
  </g>
  <g transform="translate(32.62 389.8)" fill-rule="evenodd">
   <path d="m92.86 200.9h151.4c11.87 0 21.43 9.557 21.43 21.43v140c0 11.87-9.557 21.43-21.43 21.43h-151.4c-11.87 0-21.43-9.557-21.43-21.43v-140c0-11.87 9.557-21.43 21.43-21.43z" fill="url(#linearGradient2905)" stroke="#8d8d8d" stroke-width="1px"/>
   <path d="m105 213.1h125.7c9.934 0 17.93 7.998 17.93 17.93v117.2c0 9.934-7.998 17.93-17.93 17.93h-125.7c-9.934 0-17.93-7.998-17.93-17.93v-117.2c0-9.934 7.998-17.93 17.93-17.93z" fill="url(#linearGradient2907)" stroke="#f8f8f8" stroke-width=".8343px"/>
  </g>
  <path transform="translate(114.3 564.2)" d="m121.3 154h-10.99l-7.604-21.61h-33.54l-7.604 21.61h-10.47l28.23-77.55h13.75zm-21.77-30.47-13.59-38.07-13.65 38.07z" fill="#4d4d4d" style="white-space:pre"/>
  <g transform="matrix(1.391 0 0 1 76.31 804.8)" fill-rule="evenodd">
   <path d="m92.86 200.9h151.4c11.87 0 21.43 9.557 21.43 21.43v140c0 11.87-9.557 21.43-21.43 21.43h-151.4c-11.87 0-21.43-9.557-21.43-21.43v-140c0-11.87 9.557-21.43 21.43-21.43z" fill="url(#linearGradient2905)" stroke="#8d8d8d" stroke-width="1px"/>
   <path d="m105 213.1h125.7c9.934 0 17.93 7.998 17.93 17.93v117.2c0 9.934-7.998 17.93-17.93 17.93h-125.7c-9.934 0-17.93-7.998-17.93-17.93v-117.2c0-9.934 7.998-17.93 17.93-17.93z" fill="url(#linearGradient2907)" stroke="#f8f8f8" stroke-width=".8343px"/>
  </g>
  <path transform="translate(154.8 783.8)" d="m109.7 324q0 3.398-1.602 6.719-1.562 3.32-4.414 5.625-3.125 2.5-7.305 3.906-4.141 1.406-10 1.406-6.289 0-11.33-1.172-5-1.172-10.2-3.477v-9.688h0.5469q4.414 3.672 10.2 5.664t10.86 1.992q7.188 0 11.17-2.695 4.023-2.695 4.023-7.188 0-3.867-1.914-5.703-1.875-1.836-5.742-2.852-2.93-0.7812-6.367-1.289-3.398-0.5078-7.227-1.289-7.734-1.641-11.48-5.586-3.711-3.984-3.711-10.35 0-7.305 6.172-11.95 6.172-4.688 15.66-4.688 6.133 0 11.25 1.172 5.117 1.172 9.062 2.891v9.141h-0.5469q-3.32-2.812-8.75-4.648-5.391-1.875-11.05-1.875-6.211 0-10 2.578-3.75 2.578-3.75 6.641 0 3.633 1.875 5.703t6.602 3.164q2.5 0.5469 7.109 1.328t7.812 1.602q6.484 1.719 9.766 5.195 3.281 3.477 3.281 9.727zm48.32 16.6h-7.344v-24.84q0-3.008-0.3516-5.625-0.3516-2.656-1.289-4.141-0.9766-1.641-2.812-2.422-1.836-0.8203-4.766-0.8203-3.008 0-6.289 1.484-3.281 1.484-6.289 3.789v32.58h-7.344v-60.78h7.344v21.99q3.438-2.852 7.109-4.453 3.672-1.602 7.539-1.602 7.07 0 10.78 4.258 3.711 4.258 3.711 12.27zm22.03-50.94h-8.281v-7.617h8.281zm-0.4688 50.94h-7.344v-43.63h7.344zm38.01-53.67h-0.3906q-1.211-0.3516-3.164-0.7031-1.953-0.3906-3.438-0.3906-4.727 0-6.875 2.109-2.109 2.07-2.109 7.539v1.484h13.24v6.172h-13.01v37.46h-7.344v-37.46h-4.961v-6.172h4.961v-1.445q0-7.773 3.867-11.91 3.867-4.18 11.17-4.18 2.461 0 4.414 0.2344 1.992 0.2344 3.633 0.5469zm27.3 53.28q-2.07 0.5469-4.531 0.8984-2.422 0.3516-4.336 0.3516-6.68 0-10.16-3.594-3.477-3.594-3.477-11.52v-23.2h-4.961v-6.172h4.961v-12.54h7.344v12.54h15.16v6.172h-15.16v19.88q0 3.438 0.1562 5.391 0.1562 1.914 1.094 3.594 0.8594 1.562 2.344 2.305 1.523 0.7031 4.609 0.7031 1.797 0 3.75-0.5078 1.953-0.5469 2.812-0.8984h0.3906z" fill="#4d4d4d" style="white-space:pre"/>
  <g transform="translate(252.6 389.8)" fill-rule="evenodd">
   <path d="m92.86 200.9h151.4c11.87 0 21.43 9.557 21.43 21.43v140c0 11.87-9.557 21.43-21.43 21.43h-151.4c-11.87 0-21.43-9.557-21.43-21.43v-140c0-11.87 9.557-21.43 21.43-21.43z" fill="url(#linearGradient2905)" stroke="#8d8d8d" stroke-width="1px"/>
   <path d="m105 213.1h125.7c9.934 0 17.93 7.998 17.93 17.93v117.2c0 9.934-7.998 17.93-17.93 17.93h-125.7c-9.934 0-17.93-7.998-17.93-17.93v-117.2c0-9.934 7.998-17.93 17.93-17.93z" fill="url(#linearGradient2907)" stroke="#f8f8f8" stroke-width=".8343px"/>
  </g>
  <path d="m453.2 679.5q0 10.57-4.635 19.17-4.583 8.594-12.24 13.33-5.313 3.281-11.88 4.74-6.51 1.458-17.19 1.458h-19.58v-77.55h19.38q11.35 0 18.02 1.667 6.719 1.615 11.35 4.479 7.917 4.948 12.34 13.18 4.427 8.229 4.427 19.53zm-10.78-0.1562q0-9.115-3.177-15.36-3.177-6.25-9.479-9.844-4.583-2.604-9.74-3.594-5.156-1.042-12.34-1.042h-9.688v59.84h9.688q7.448 0 12.97-1.094 5.573-1.094 10.21-4.063 5.781-3.698 8.646-9.74 2.917-6.042 2.917-15.1z" fill="#4d4d4d"/>
  <text x="156.22958" y="856.98297" fill="#ffffff" font-family="Verdana" font-size="106.7px" stroke="#b3b3b3" stroke-linejoin="round" stroke-width="20" xml:space="preserve"><tspan x="156.22958" y="856.98297"/></text>
  <g transform="translate(32.62 599.8)" fill-rule="evenodd">
   <path d="m92.86 200.9h151.4c11.87 0 21.43 9.557 21.43 21.43v140c0 11.87-9.557 21.43-21.43 21.43h-151.4c-11.87 0-21.43-9.557-21.43-21.43v-140c0-11.87 9.557-21.43 21.43-21.43z" fill="url(#linearGradient2905)" stroke="#8d8d8d" stroke-width="1px"/>
   <path d="m105 213.1h125.7c9.934 0 17.93 7.998 17.93 17.93v117.2c0 9.934-7.998 17.93-17.93 17.93h-125.7c-9.934 0-17.93-7.998-17.93-17.93v-117.2c0-9.934 7.998-17.93 17.93-17.93z" fill="url(#linearGradient2907)" stroke="#f8f8f8" stroke-width=".8343px"/>
  </g>
  <g fill="#4d4d4d" stroke-linejoin="round" stroke-width="20">
   <path d="m163.4 851.2q0 2.836-1.003 5.271-0.974 2.406-2.75 4.182-2.206 2.206-5.214 3.323-3.008 1.089-7.591 1.089h-5.672v15.9h-5.672v-42.65h11.57q3.839 0 6.503 0.6589 2.664 0.6302 4.727 2.005 2.435 1.633 3.753 4.068 1.346 2.435 1.346 6.159zm-5.901 0.1432q0-2.206-0.7734-3.839-0.7734-1.633-2.349-2.664-1.375-0.888-3.151-1.26-1.747-0.401-4.44-0.401h-5.615v17.04h4.784q3.438 0 5.586-0.6016 2.148-0.6302 3.495-1.977 1.346-1.375 1.891-2.893 0.5729-1.518 0.5729-3.409zm36.38 29.62h-5.357v-3.409q-0.7162 0.487-1.948 1.375-1.203 0.8594-2.349 1.375-1.346 0.6588-3.094 1.089-1.747 0.4583-4.096 0.4583-4.326 0-7.333-2.865-3.008-2.865-3.008-7.305 0-3.638 1.547-5.872 1.576-2.263 4.469-3.552 2.922-1.289 7.018-1.747 4.096-0.4583 8.794-0.6875v-0.8307q0-1.833-0.6589-3.036-0.6302-1.203-1.833-1.891-1.146-0.6589-2.75-0.888-1.604-0.2292-3.352-0.2292-2.12 0-4.727 0.5729-2.607 0.5443-5.385 1.604h-0.2865v-5.471q1.576-0.4297 4.555-0.9453 2.979-0.5156 5.872-0.5156 3.38 0 5.872 0.5729 2.521 0.5443 4.354 1.891 1.805 1.318 2.75 3.409 0.9453 2.091 0.9453 5.185zm-5.357-7.878v-8.909q-2.464 0.1432-5.815 0.4297-3.323 0.2865-5.271 0.8307-2.32 0.6588-3.753 2.062-1.432 1.375-1.432 3.81 0 2.75 1.661 4.154 1.661 1.375 5.07 1.375 2.836 0 5.185-1.089 2.349-1.117 4.354-2.664zm41.68 4.24q0 8.135-3.695 11.95-3.695 3.81-11.37 3.81-2.549 0-4.984-0.3724-2.406-0.3438-4.755-1.003v-5.5h0.2865q1.318 0.5156 4.182 1.26 2.865 0.7734 5.729 0.7734 2.75 0 4.555-0.6589 1.805-0.6588 2.807-1.833 1.003-1.117 1.432-2.693 0.4297-1.576 0.4297-3.523v-2.922q-2.435 1.948-4.669 2.922-2.206 0.9453-5.643 0.9453-5.729 0-9.109-4.125-3.352-4.154-3.352-11.69 0-4.125 1.146-7.104 1.174-3.008 3.18-5.185 1.862-2.034 4.526-3.151 2.664-1.146 5.299-1.146 2.779 0 4.641 0.5729 1.891 0.5443 3.982 1.69l0.3438-1.375h5.042zm-5.385-5.156v-17.45q-2.148-0.974-4.01-1.375-1.833-0.4297-3.667-0.4297-4.44 0-6.99 2.979t-2.549 8.651q0 5.385 1.891 8.164 1.891 2.779 6.273 2.779 2.349 0 4.698-0.888 2.378-0.9167 4.354-2.435zm42.77-6.646h-23.58q0 2.951 0.888 5.156 0.888 2.177 2.435 3.581 1.49 1.375 3.523 2.062 2.062 0.6875 4.526 0.6875 3.266 0 6.56-1.289 3.323-1.318 4.727-2.578h0.2865v5.872q-2.721 1.146-5.557 1.919-2.836 0.7734-5.958 0.7734-7.964 0-12.43-4.297-4.469-4.326-4.469-12.26 0-7.849 4.268-12.46 4.297-4.612 11.29-4.612 6.474 0 9.969 3.781 3.523 3.781 3.523 10.74zm-5.242-4.125q-0.0287-4.24-2.148-6.56-2.091-2.32-6.388-2.32-4.326 0-6.904 2.549-2.549 2.549-2.893 6.331z"/>
   <path d="m167.6 922.5q0 4.641-1.031 8.107-1.003 3.438-3.323 5.729-2.206 2.177-5.156 3.18-2.951 1.003-6.875 1.003-4.01 0-6.99-1.06-2.979-1.06-5.013-3.122-2.32-2.349-3.352-5.672-1.003-3.323-1.003-8.164v-25.52h5.672v25.81q0 3.466 0.4583 5.471 0.487 2.005 1.604 3.638 1.26 1.862 3.409 2.807 2.177 0.9453 5.214 0.9453 3.065 0 5.214-0.9167 2.148-0.9453 3.438-2.836 1.117-1.633 1.576-3.724 0.487-2.12 0.487-5.242v-25.95h5.672zm38.56 0.7448q0 3.896-1.117 7.133-1.117 3.208-3.151 5.443-1.891 2.12-4.469 3.294-2.549 1.146-5.414 1.146-2.492 0-4.526-0.5443-2.005-0.5443-4.096-1.69v13.41h-5.385v-43.8h5.385v3.352q2.148-1.805 4.812-3.008 2.693-1.232 5.729-1.232 5.786 0 8.995 4.383 3.237 4.354 3.237 12.12zm-5.557 0.1432q0-5.786-1.977-8.651-1.977-2.865-6.073-2.865-2.32 0-4.669 1.003-2.349 1.003-4.497 2.635v18.13q2.292 1.031 3.924 1.404 1.661 0.3724 3.753 0.3724 4.497 0 7.018-3.036 2.521-3.036 2.521-8.995z"/>
  </g>
  <g transform="translate(252.6 599.8)" fill-rule="evenodd">
   <path d="m92.86 200.9h151.4c11.87 0 21.43 9.557 21.43 21.43v140c0 11.87-9.557 21.43-21.43 21.43h-151.4c-11.87 0-21.43-9.557-21.43-21.43v-140c0-11.87 9.557-21.43 21.43-21.43z" fill="url(#linearGradient12)" stroke="#8d8d8d" stroke-width="1px"/>
   <path d="m105 213.1h125.7c9.934 0 17.93 7.998 17.93 17.93v117.2c0 9.934-7.998 17.93-17.93 17.93h-125.7c-9.934 0-17.93-7.998-17.93-17.93v-117.2c0-9.934 7.998-17.93 17.93-17.93z" fill="url(#linearGradient13)" stroke="#f8f8f8" stroke-width=".8343px"/>
  </g>
  <g fill="#4d4d4d" stroke-linejoin="round" stroke-width="20">
   <path d="m370.8 851.2q0 2.836-1.003 5.271-0.974 2.406-2.75 4.182-2.206 2.206-5.214 3.323-3.008 1.089-7.591 1.089h-5.672v15.9h-5.672v-42.65h11.57q3.839 0 6.503 0.6589 2.664 0.6302 4.727 2.005 2.435 1.633 3.753 4.068 1.346 2.435 1.346 6.159zm-5.901 0.1432q0-2.206-0.7734-3.839-0.7734-1.633-2.349-2.664-1.375-0.888-3.151-1.26-1.747-0.401-4.44-0.401h-5.615v17.04h4.784q3.438 0 5.586-0.6016 2.148-0.6302 3.495-1.977 1.346-1.375 1.891-2.893 0.5729-1.518 0.5729-3.409zm36.38 29.62h-5.357v-3.409q-0.7162 0.487-1.948 1.375-1.203 0.8594-2.349 1.375-1.346 0.6588-3.094 1.089-1.747 0.4583-4.096 0.4583-4.326 0-7.333-2.865-3.008-2.865-3.008-7.305 0-3.638 1.547-5.872 1.576-2.263 4.469-3.552 2.922-1.289 7.018-1.747 4.096-0.4583 8.794-0.6875v-0.8307q0-1.833-0.6589-3.036-0.6302-1.203-1.833-1.891-1.146-0.6588-2.75-0.888-1.604-0.2292-3.352-0.2292-2.12 0-4.727 0.5729-2.607 0.5443-5.385 1.604h-0.2865v-5.471q1.576-0.4297 4.555-0.9453 2.979-0.5156 5.872-0.5156 3.38 0 5.872 0.5729 2.521 0.5443 4.354 1.891 1.805 1.318 2.75 3.409 0.9453 2.091 0.9453 5.185zm-5.357-7.878v-8.909q-2.464 0.1432-5.815 0.4297-3.323 0.2865-5.271 0.8307-2.32 0.6589-3.753 2.062-1.432 1.375-1.432 3.81 0 2.75 1.661 4.154 1.661 1.375 5.07 1.375 2.836 0 5.185-1.089 2.349-1.117 4.354-2.664zm41.68 4.24q0 8.135-3.695 11.95-3.695 3.81-11.37 3.81-2.549 0-4.984-0.3724-2.406-0.3438-4.755-1.003v-5.5h0.2865q1.318 0.5156 4.182 1.26 2.865 0.7734 5.729 0.7734 2.75 0 4.555-0.6589 1.805-0.6588 2.807-1.833 1.003-1.117 1.432-2.693t0.4297-3.523v-2.922q-2.435 1.948-4.669 2.922-2.206 0.9453-5.643 0.9453-5.729 0-9.109-4.125-3.352-4.154-3.352-11.69 0-4.125 1.146-7.104 1.174-3.008 3.18-5.185 1.862-2.034 4.526-3.151 2.664-1.146 5.299-1.146 2.779 0 4.641 0.5729 1.891 0.5443 3.982 1.69l0.3438-1.375h5.042zm-5.385-5.156v-17.45q-2.148-0.974-4.01-1.375-1.833-0.4297-3.667-0.4297-4.44 0-6.99 2.979-2.549 2.979-2.549 8.651 0 5.385 1.891 8.164 1.891 2.779 6.273 2.779 2.349 0 4.698-0.888 2.378-0.9167 4.354-2.435zm42.77-6.646h-23.58q0 2.951 0.888 5.156 0.888 2.177 2.435 3.581 1.49 1.375 3.523 2.063 2.062 0.6875 4.526 0.6875 3.266 0 6.56-1.289 3.323-1.318 4.727-2.578h0.2865v5.872q-2.721 1.146-5.557 1.919-2.836 0.7734-5.958 0.7734-7.964 0-12.43-4.297-4.469-4.326-4.469-12.26 0-7.849 4.268-12.46 4.297-4.612 11.29-4.612 6.474 0 9.969 3.781 3.523 3.781 3.523 10.74zm-5.242-4.125q-0.0286-4.24-2.148-6.56-2.091-2.32-6.388-2.32-4.326 0-6.904 2.549-2.549 2.549-2.893 6.331z"/>
   <path d="m378.9 918.3q0 5.815-2.549 10.54-2.521 4.727-6.732 7.333-2.922 1.805-6.531 2.607-3.581 0.8021-9.453 0.8021h-10.77v-42.65h10.66q6.245 0 9.911 0.9167 3.695 0.888 6.245 2.464 4.354 2.721 6.789 7.247 2.435 4.526 2.435 10.74zm-5.93-0.0859q0-5.013-1.747-8.451t-5.214-5.414q-2.521-1.432-5.357-1.977-2.836-0.5729-6.789-0.5729h-5.328v32.91h5.328q4.096 0 7.133-0.6016 3.065-0.6016 5.615-2.234 3.18-2.034 4.755-5.357 1.604-3.323 1.604-8.307zm41.94 5.385q0 7.82-4.01 12.35-4.01 4.526-10.74 4.526-6.789 0-10.8-4.526-3.982-4.526-3.982-12.35 0-7.82 3.982-12.35 4.01-4.555 10.8-4.555 6.732 0 10.74 4.555 4.01 4.526 4.01 12.35zm-5.557 0q0-6.216-2.435-9.224-2.435-3.036-6.76-3.036-4.383 0-6.818 3.036-2.406 3.008-2.406 9.224 0 6.016 2.435 9.138 2.435 3.094 6.789 3.094 4.297 0 6.732-3.065 2.464-3.094 2.464-9.167zm54.14-16.01-8.336 32h-4.984l-8.221-24.66-8.164 24.66h-4.956l-8.422-32h5.615l5.872 24.78 7.992-24.78h4.44l8.193 24.78 5.557-24.78zm34.52 32h-5.385v-18.22q0-2.206-0.2578-4.125-0.2578-1.948-0.9453-3.036-0.7161-1.203-2.062-1.776-1.346-0.6016-3.495-0.6016-2.206 0-4.612 1.089-2.406 1.089-4.612 2.779v23.89h-5.385v-32h5.385v3.552q2.521-2.091 5.214-3.266t5.529-1.174q5.185 0 7.906 3.122 2.721 3.122 2.721 8.995z"/>
  </g>
  <g fill="#ccc" stroke-linejoin="round" stroke-width="20">
   <path transform="translate(-2.962 544.2)" d="m599.5 164.5h-9.37l-18.16-21.58h-10.17v21.58h-7.219v-54.29h15.2q4.922 0 8.203 0.6562 3.281 0.6198 5.906 2.26 2.953 1.859 4.594 4.703 1.677 2.807 1.677 7.146 0 5.87-2.953 9.844-2.953 3.938-8.13 5.943zm-16.88-39.01q0-2.333-0.8385-4.12-0.8021-1.823-2.698-3.062-1.568-1.057-3.719-1.458-2.151-0.4375-5.068-0.4375h-8.495v20.49h7.292q3.427 0 5.979-0.5833 2.552-0.6198 4.339-2.26 1.641-1.531 2.406-3.5 0.8021-2.005 0.8021-5.068zm56.22 18.67q0 9.953-5.104 15.71-5.104 5.76-13.67 5.76-8.641 0-13.74-5.76-5.068-5.76-5.068-15.71t5.068-15.71q5.104-5.797 13.74-5.797 8.568 0 13.67 5.797 5.104 5.76 5.104 15.71zm-7.073 0q0-7.911-3.099-11.74-3.099-3.865-8.604-3.865-5.578 0-8.677 3.865-3.063 3.828-3.063 11.74 0 7.656 3.099 11.63 3.099 3.938 8.641 3.938 5.469 0 8.568-3.901 3.135-3.938 3.135-11.67zm38.83 19.98q-1.932 0.5104-4.229 0.8385-2.26 0.3281-4.047 0.3281-6.234 0-9.479-3.354-3.245-3.354-3.245-10.76v-21.66h-4.63v-5.76h4.63v-11.7h6.854v11.7h14.15v5.76h-14.15v18.56q0 3.208 0.1458 5.031 0.1458 1.786 1.021 3.354 0.8021 1.458 2.188 2.151 1.422 0.6562 4.302 0.6562 1.677 0 3.5-0.474 1.823-0.5104 2.625-0.8385h0.3646zm39.92 0.3646h-6.818v-4.339q-0.9115 0.6198-2.479 1.75-1.531 1.094-2.99 1.75-1.714 0.8385-3.938 1.385-2.224 0.5833-5.214 0.5833-5.505 0-9.333-3.646-3.828-3.646-3.828-9.297 0-4.63 1.969-7.474 2.005-2.88 5.688-4.521 3.719-1.641 8.932-2.224 5.214-0.5833 11.19-0.875v-1.057q0-2.333-0.8385-3.865-0.8021-1.531-2.333-2.406-1.458-0.8385-3.5-1.13-2.042-0.2917-4.266-0.2917-2.698 0-6.016 0.7292-3.318 0.6927-6.854 2.042h-0.3646v-6.964q2.005-0.5469 5.797-1.203t7.474-0.6562q4.302 0 7.474 0.7292 3.208 0.6927 5.542 2.406 2.297 1.677 3.5 4.339 1.203 2.661 1.203 6.599zm-6.818-10.03v-11.34q-3.135 0.1823-7.401 0.5469-4.229 0.3646-6.708 1.057-2.953 0.8385-4.776 2.625-1.823 1.75-1.823 4.849 0 3.5 2.115 5.286 2.115 1.75 6.453 1.75 3.609 0 6.599-1.385 2.99-1.422 5.542-3.391zm41.16 9.661q-1.932 0.5104-4.229 0.8385-2.26 0.3281-4.047 0.3281-6.234 0-9.479-3.354-3.245-3.354-3.245-10.76v-21.66h-4.63v-5.76h4.63v-11.7h6.854v11.7h14.15v5.76h-14.15v18.56q0 3.208 0.1458 5.031 0.1458 1.786 1.021 3.354 0.8021 1.458 2.188 2.151 1.422 0.6562 4.302 0.6562 1.677 0 3.5-0.474 1.823-0.5104 2.625-0.8385h0.3646zm42.36-19.29h-30.01q0 3.755 1.13 6.563 1.13 2.771 3.099 4.557 1.896 1.75 4.484 2.625 2.625 0.875 5.76 0.875 4.156 0 8.349-1.641 4.229-1.677 6.016-3.281h0.3646v7.474q-3.464 1.458-7.073 2.443-3.609 0.9844-7.583 0.9844-10.14 0-15.82-5.469-5.688-5.505-5.688-15.6 0-9.99 5.432-15.86 5.469-5.87 14.36-5.87 8.24 0 12.69 4.812 4.484 4.812 4.484 13.67zm-6.672-5.25q-0.0365-5.396-2.734-8.349-2.661-2.953-8.13-2.953-5.505 0-8.786 3.245-3.245 3.245-3.682 8.057z" style="white-space:pre"/>
   <path transform="translate(-92 519.5)" d="m665.8 359.2q-2.005 0.875-3.646 1.641-1.604 0.7656-4.229 1.604-2.224 0.6927-4.849 1.167-2.589 0.5104-5.724 0.5104-5.906 0-10.76-1.641-4.812-1.677-8.385-5.214-3.5-3.464-5.469-8.786-1.969-5.359-1.969-12.43 0-6.708 1.896-11.99 1.896-5.286 5.469-8.932 3.464-3.536 8.349-5.396 4.922-1.859 10.9-1.859 4.375 0 8.714 1.057 4.375 1.057 9.698 3.719v8.568h-0.5469q-4.484-3.755-8.896-5.469t-9.443-1.714q-4.12 0-7.438 1.349-3.281 1.312-5.87 4.12-2.516 2.734-3.938 6.927-1.385 4.156-1.385 9.625 0 5.724 1.531 9.844 1.568 4.12 4.01 6.708 2.552 2.698 5.943 4.01 3.427 1.276 7.219 1.276 5.214 0 9.771-1.786 4.557-1.786 8.531-5.359h0.5104zm43.71 3.938h-6.854v-23.19q0-2.807-0.3281-5.25-0.3281-2.479-1.203-3.865-0.9115-1.531-2.625-2.26-1.714-0.7656-4.448-0.7656-2.807 0-5.87 1.385t-5.87 3.536v30.41h-6.854v-56.73h6.854v20.53q3.208-2.661 6.635-4.156 3.427-1.495 7.036-1.495 6.599 0 10.06 3.974 3.464 3.974 3.464 11.45zm44.84 0h-6.818v-4.339q-0.9115 0.6198-2.479 1.75-1.531 1.094-2.99 1.75-1.714 0.8386-3.938 1.385-2.224 0.5833-5.214 0.5833-5.505 0-9.333-3.646-3.828-3.646-3.828-9.297 0-4.63 1.969-7.474 2.005-2.88 5.688-4.521 3.719-1.641 8.932-2.224 5.214-0.5833 11.19-0.875v-1.057q0-2.333-0.8385-3.865-0.8021-1.531-2.333-2.406-1.458-0.8385-3.5-1.13-2.042-0.2917-4.266-0.2917-2.698 0-6.016 0.7292-3.318 0.6927-6.854 2.042h-0.3646v-6.964q2.005-0.5469 5.797-1.203 3.792-0.6562 7.474-0.6562 4.302 0 7.474 0.7292 3.208 0.6927 5.542 2.406 2.297 1.677 3.5 4.339 1.203 2.661 1.203 6.599zm-6.818-10.03v-11.34q-3.135 0.1823-7.401 0.5469-4.229 0.3646-6.708 1.057-2.953 0.8385-4.776 2.625-1.823 1.75-1.823 4.849 0 3.5 2.115 5.286 2.115 1.75 6.453 1.75 3.609 0 6.599-1.385 2.99-1.422 5.542-3.391zm54.07 10.03h-6.854v-23.19q0-2.807-0.3281-5.25-0.3281-2.479-1.203-3.865-0.9115-1.531-2.625-2.26-1.714-0.7656-4.448-0.7656-2.807 0-5.87 1.385-3.063 1.385-5.87 3.536v30.41h-6.854v-40.72h6.854v4.521q3.208-2.661 6.635-4.156 3.427-1.495 7.036-1.495 6.599 0 10.06 3.974 3.464 3.974 3.464 11.45zm46.23-4.63q0 10.35-4.703 15.2t-14.47 4.849q-3.245 0-6.344-0.474-3.062-0.4375-6.052-1.276v-7h0.3646q1.677 0.6562 5.323 1.604 3.646 0.9844 7.292 0.9844 3.5 0 5.797-0.8386 2.297-0.8385 3.573-2.333 1.276-1.422 1.823-3.427 0.5469-2.005 0.5469-4.484v-3.719q-3.099 2.479-5.943 3.719-2.807 1.203-7.182 1.203-7.292 0-11.59-5.25-4.266-5.286-4.266-14.88 0-5.25 1.458-9.042 1.495-3.828 4.047-6.599 2.37-2.589 5.76-4.01 3.391-1.458 6.745-1.458 3.536 0 5.906 0.7292 2.406 0.6927 5.068 2.151l0.4375-1.75h6.417zm-6.854-6.563v-22.2q-2.734-1.24-5.104-1.75-2.333-0.5469-4.667-0.5469-5.651 0-8.896 3.792t-3.245 11.01q0 6.854 2.406 10.39t7.984 3.536q2.99 0 5.979-1.13 3.026-1.167 5.542-3.099zm54.43-8.458h-30.01q0 3.755 1.13 6.563 1.13 2.771 3.099 4.557 1.896 1.75 4.484 2.625 2.625 0.875 5.76 0.875 4.156 0 8.349-1.641 4.229-1.677 6.016-3.281h0.3646v7.474q-3.464 1.458-7.073 2.443-3.609 0.9844-7.583 0.9844-10.14 0-15.82-5.469-5.688-5.505-5.688-15.6 0-9.99 5.432-15.86 5.469-5.87 14.36-5.87 8.24 0 12.69 4.812 4.484 4.812 4.484 13.67zm-6.672-5.25q-0.0365-5.396-2.734-8.349-2.661-2.953-8.13-2.953-5.505 0-8.786 3.245-3.245 3.245-3.682 8.057zm-186.6 99.57h-34.34v-54.29h7.219v47.87h27.13zm40.76-19.65h-30.01q0 3.755 1.13 6.562 1.13 2.771 3.099 4.557 1.896 1.75 4.484 2.625 2.625 0.875 5.76 0.875 4.156 0 8.349-1.641 4.229-1.677 6.016-3.281h0.3646v7.474q-3.464 1.458-7.073 2.443-3.609 0.9844-7.583 0.9844-10.14 0-15.82-5.469-5.688-5.505-5.688-15.6 0-9.99 5.432-15.86 5.469-5.87 14.36-5.87 8.24 0 12.69 4.812 4.484 4.812 4.484 13.67zm-6.672-5.25q-0.0365-5.396-2.734-8.349-2.661-2.953-8.13-2.953-5.505 0-8.786 3.245-3.245 3.245-3.682 8.057zm52.28-15.82-16.48 40.72h-6.891l-16.37-40.72h7.438l12.61 32.41 12.51-32.41zm42.4 21.07h-30.01q0 3.755 1.13 6.562 1.13 2.771 3.099 4.557 1.896 1.75 4.484 2.625 2.625 0.875 5.76 0.875 4.156 0 8.349-1.641 4.229-1.677 6.016-3.281h0.3646v7.474q-3.464 1.458-7.073 2.443-3.609 0.9844-7.583 0.9844-10.14 0-15.82-5.469-5.688-5.505-5.688-15.6 0-9.99 5.432-15.86 5.469-5.87 14.36-5.87 8.24 0 12.69 4.812 4.484 4.812 4.484 13.67zm-6.672-5.25q-0.0365-5.396-2.734-8.349-2.661-2.953-8.13-2.953-5.505 0-8.786 3.245-3.245 3.245-3.682 8.057zm23.99 24.9h-6.854v-56.73h6.854z" style="white-space:pre"/>
   <path transform="translate(-2.447 480.9)" d="m598.2 584.3q0 3.172-1.495 6.271-1.458 3.099-4.12 5.25-2.917 2.333-6.818 3.646-3.865 1.312-9.333 1.312-5.87 0-10.57-1.094-4.667-1.094-9.516-3.245v-9.042h0.5104q4.12 3.427 9.516 5.286 5.396 1.859 10.14 1.859 6.708 0 10.43-2.516 3.755-2.516 3.755-6.708 0-3.609-1.786-5.323-1.75-1.714-5.359-2.661-2.734-0.7292-5.943-1.203-3.172-0.474-6.745-1.203-7.219-1.531-10.72-5.214-3.464-3.719-3.464-9.661 0-6.818 5.76-11.16 5.76-4.375 14.62-4.375 5.724 0 10.5 1.094 4.776 1.094 8.458 2.698v8.531h-0.5104q-3.099-2.625-8.167-4.339-5.031-1.75-10.32-1.75-5.797 0-9.333 2.406-3.5 2.406-3.5 6.198 0 3.391 1.75 5.323t6.161 2.953q2.333 0.5104 6.635 1.24 4.302 0.7292 7.292 1.495 6.052 1.604 9.115 4.849 3.062 3.245 3.062 9.078zm46.89-5.359q0 4.958-1.422 9.078-1.422 4.083-4.01 6.927-2.406 2.698-5.688 4.193-3.245 1.458-6.891 1.458-3.172 0-5.76-0.6927-2.552-0.6927-5.214-2.151v17.06h-6.854v-55.74h6.854v4.266q2.734-2.297 6.125-3.828 3.427-1.568 7.292-1.568 7.365 0 11.45 5.578 4.12 5.542 4.12 15.42zm-7.073 0.1823q0-7.365-2.516-11.01-2.516-3.646-7.729-3.646-2.953 0-5.943 1.276-2.99 1.276-5.724 3.354v23.08q2.917 1.312 4.995 1.786 2.115 0.474 4.776 0.474 5.724 0 8.932-3.865 3.208-3.865 3.208-11.45zm51.84 1.021h-30.01q0 3.755 1.13 6.562 1.13 2.771 3.099 4.557 1.896 1.75 4.484 2.625 2.625 0.875 5.76 0.875 4.156 0 8.349-1.641 4.229-1.677 6.016-3.281h0.3646v7.474q-3.464 1.458-7.073 2.443-3.609 0.9844-7.583 0.9844-10.14 0-15.82-5.469-5.688-5.505-5.688-15.6 0-9.99 5.432-15.86 5.469-5.87 14.36-5.87 8.24 0 12.69 4.813 4.484 4.812 4.484 13.67zm-6.672-5.25q-0.0364-5.396-2.734-8.349-2.661-2.953-8.13-2.953-5.505 0-8.786 3.245-3.245 3.245-3.682 8.057zm51.15 5.25h-30.01q0 3.755 1.13 6.562 1.13 2.771 3.099 4.557 1.896 1.75 4.484 2.625 2.625 0.875 5.76 0.875 4.156 0 8.349-1.641 4.229-1.677 6.016-3.281h0.3646v7.474q-3.464 1.458-7.073 2.443-3.609 0.9844-7.583 0.9844-10.14 0-15.82-5.469-5.688-5.505-5.688-15.6 0-9.99 5.432-15.86 5.469-5.87 14.36-5.87 8.24 0 12.69 4.813 4.484 4.812 4.484 13.67zm-6.672-5.25q-0.0365-5.396-2.734-8.349-2.661-2.953-8.13-2.953-5.505 0-8.786 3.245-3.245 3.245-3.682 8.057zm50.09 24.9h-6.854v-4.266q-2.953 2.552-6.161 3.974-3.208 1.422-6.964 1.422-7.292 0-11.59-5.615-4.266-5.615-4.266-15.57 0-5.177 1.458-9.224 1.495-4.047 4.01-6.891 2.479-2.771 5.76-4.229 3.318-1.458 6.854-1.458 3.208 0 5.688 0.6927 2.479 0.6562 5.214 2.078v-17.65h6.854zm-6.854-10.03v-23.37q-2.771-1.24-4.958-1.714t-4.776-0.474q-5.76 0-8.969 4.01-3.208 4.01-3.208 11.38 0 7.255 2.479 11.05 2.479 3.755 7.948 3.755 2.917 0 5.906-1.276 2.99-1.312 5.578-3.354zm-105.3 62.89q0 5.906-1.312 10.32-1.276 4.375-4.229 7.292-2.807 2.771-6.562 4.047-3.755 1.276-8.75 1.276-5.104 0-8.896-1.349t-6.38-3.974q-2.953-2.99-4.266-7.219-1.276-4.229-1.276-10.39v-32.48h7.219v32.85q0 4.411 0.5833 6.964 0.6198 2.552 2.042 4.63 1.604 2.37 4.339 3.573 2.771 1.203 6.635 1.203 3.901 0 6.635-1.167 2.734-1.203 4.375-3.609 1.422-2.078 2.005-4.74 0.6198-2.698 0.6198-6.672v-33.03h7.219zm49.07 0.9479q0 4.958-1.422 9.078-1.422 4.083-4.01 6.927-2.406 2.698-5.688 4.193-3.245 1.458-6.891 1.458-3.172 0-5.76-0.6927-2.552-0.6927-5.214-2.151v17.06h-6.854v-55.74h6.854v4.266q2.734-2.297 6.125-3.828 3.427-1.568 7.292-1.568 7.365 0 11.45 5.578 4.12 5.542 4.12 15.42zm-7.073 0.1823q0-7.365-2.516-11.01-2.516-3.646-7.729-3.646-2.953 0-5.943 1.276-2.99 1.276-5.724 3.354v23.08q2.917 1.312 4.995 1.786 2.115 0.474 4.776 0.474 5.724 0 8.932-3.865 3.208-3.865 3.208-11.45z" style="white-space:pre"/>
  </g>
 </g>
</svg>
